<svg width="45" height="49" viewBox="0 0 45 49" fill="none" xmlns="http://www.w3.org/2000/svg">
<path d="M17.2083 43.5417H27.0417C27.0417 46.0625 24.8292 48.125 22.125 48.125C19.4208 48.125 17.2083 46.0625 17.2083 43.5417ZM44.25 38.9583V41.25H0V38.9583L4.91667 34.375V20.625C4.91667 13.5208 9.83333 7.33333 17.2083 5.27083V4.58333C17.2083 2.0625 19.4208 0 22.125 0C24.8292 0 27.0417 2.0625 27.0417 4.58333V5.27083C34.4167 7.33333 39.3333 13.5208 39.3333 20.625V34.375L44.25 38.9583ZM34.4167 20.625C34.4167 14.2083 29.0083 9.16667 22.125 9.16667C15.2417 9.16667 9.83333 14.2083 9.83333 20.625V36.6667H34.4167V20.625Z" fill="#2DB1B9"/>
</svg>
