<svg width="41" height="50" viewBox="0 0 41 50" fill="none" xmlns="http://www.w3.org/2000/svg">
<path d="M20.4375 47.8333C30.5597 47.8333 38.875 40.3556 38.875 30.7581C38.875 28.4023 38.7459 25.8769 37.3447 21.9513C35.9434 18.0256 35.662 17.5192 34.1808 15.0946C33.5478 20.0411 30.1614 22.1036 29.301 22.7201C29.301 22.0784 27.2532 14.9892 24.1471 10.7461C21.0976 6.58333 16.9504 3.85281 14.5191 2C14.5191 5.51771 13.4583 10.7473 11.9378 13.4125C10.4186 16.0766 10.1334 16.174 8.23433 18.1563C6.3365 20.1385 5.46502 20.7516 3.87694 23.1578C2.29008 25.5641 2 28.769 2 31.1248C2 40.7223 10.3153 47.8333 20.4375 47.8333Z" fill="url(#paint0_linear_1_34)" stroke="url(#paint1_linear_1_34)" stroke-width="4" stroke-linejoin="round"/>
<defs>
<linearGradient id="paint0_linear_1_34" x1="20.4375" y1="2" x2="20.4375" y2="47.8333" gradientUnits="userSpaceOnUse">
<stop stop-color="#FB1010"/>
<stop offset="1" stop-color="#EF9B4E"/>
</linearGradient>
<linearGradient id="paint1_linear_1_34" x1="20.4375" y1="2" x2="20.4375" y2="47.8333" gradientUnits="userSpaceOnUse">
<stop stop-color="#FB1010"/>
<stop offset="1" stop-color="#EF9B4E"/>
</linearGradient>
</defs>
</svg>
