<svg width="59" height="55" viewBox="0 0 59 55" fill="none" xmlns="http://www.w3.org/2000/svg">
<path d="M1.90077 22.993L1.89563 22.976L1.8899 22.9593C1.31342 21.2709 1 19.4581 1 17.5695C1 8.41226 8.37355 1 17.4556 1C21.8566 1 25.8532 2.73834 28.8075 5.57394L29.5 6.23854L30.1925 5.57394C33.1468 2.73834 37.1434 1 41.5444 1C50.6264 1 58 8.41226 58 17.5695C58 18.3771 57.9427 19.1706 57.8321 19.9463L57.8242 20.0019L57.8225 20.0581C57.7569 22.285 56.6121 25.5305 54.6602 29.2391C52.7274 32.9113 50.0697 36.9148 47.1191 40.6207C44.1665 44.329 40.9445 47.7092 37.8934 50.1517C34.7922 52.6345 32.0489 54 30.0237 54C28.1956 54 25.7293 52.8871 22.8952 50.8138C20.1035 48.7714 17.1094 45.9128 14.2581 42.6838C8.53343 36.2008 3.53485 28.399 1.90077 22.993Z" stroke="#2DB1B9" stroke-width="2"/>
</svg>
