<svg width="57" height="48" viewBox="0 0 57 48" fill="none" xmlns="http://www.w3.org/2000/svg">
<path fill-rule="evenodd" clip-rule="evenodd" d="M4.125 36.4286C5.21902 36.4286 6.26823 37.0043 7.04182 38.029C7.8154 39.0538 8.25 40.4436 8.25 41.8929C8.25 43.3421 7.8154 44.7319 7.04182 45.7567C6.26823 46.7814 5.21902 47.3571 4.125 47.3571C3.03098 47.3571 1.98177 46.7814 1.20818 45.7567C0.434597 44.7319 0 43.3421 0 41.8929C0 40.4436 0.434597 39.0538 1.20818 38.029C1.98177 37.0043 3.03098 36.4286 4.125 36.4286ZM53.6223 38.25C55.143 38.25 56.375 39.8674 56.375 41.8929C56.375 43.9055 55.1513 45.5357 53.6223 45.5357H15.1278C14.7662 45.5372 14.408 45.4439 14.0737 45.2614C13.7394 45.0789 13.4356 44.8107 13.1798 44.4722C12.924 44.1337 12.7212 43.7315 12.5831 43.2889C12.445 42.8463 12.3743 42.3718 12.375 41.8929C12.375 39.8802 13.5988 38.25 15.1278 38.25H53.6223ZM4.125 18.2143C5.21902 18.2143 6.26823 18.79 7.04182 19.8147C7.8154 20.8395 8.25 22.2294 8.25 23.6786C8.25 25.1278 7.8154 26.5177 7.04182 27.5424C6.26823 28.5672 5.21902 29.1429 4.125 29.1429C3.03098 29.1429 1.98177 28.5672 1.20818 27.5424C0.434597 26.5177 0 25.1278 0 23.6786C0 22.2294 0.434597 20.8395 1.20818 19.8147C1.98177 18.79 3.03098 18.2143 4.125 18.2143ZM53.6223 20.0357C55.143 20.0357 56.375 21.6531 56.375 23.6786C56.375 25.6913 55.1513 27.3214 53.6223 27.3214H15.1278C14.7662 27.3229 14.408 27.2297 14.0737 27.0471C13.7394 26.8646 13.4356 26.5964 13.1798 26.2579C12.924 25.9194 12.7212 25.5173 12.5831 25.0746C12.445 24.632 12.3743 24.1575 12.375 23.6786C12.375 21.6659 13.5988 20.0357 15.1278 20.0357H53.6223ZM4.125 0C5.21902 0 6.26823 0.575699 7.04182 1.60045C7.8154 2.6252 8.25 4.01507 8.25 5.46429C8.25 6.91351 7.8154 8.30337 7.04182 9.32812C6.26823 10.3529 5.21902 10.9286 4.125 10.9286C3.03098 10.9286 1.98177 10.3529 1.20818 9.32812C0.434597 8.30337 0 6.91351 0 5.46429C0 4.01507 0.434597 2.6252 1.20818 1.60045C1.98177 0.575699 3.03098 0 4.125 0ZM53.6223 1.82143C55.143 1.82143 56.375 3.43886 56.375 5.46429C56.375 7.47696 55.1513 9.10714 53.6223 9.10714H15.1278C14.7662 9.10858 14.408 9.01537 14.0737 8.83285C13.7394 8.65034 13.4356 8.38212 13.1798 8.04361C12.924 7.7051 12.7212 7.30297 12.5831 6.86033C12.445 6.41769 12.3743 5.94325 12.375 5.46429C12.375 3.45161 13.5988 1.82143 15.1278 1.82143H53.6223Z" fill="#2DB1B9"/>
</svg>
